<mxfile host="app.diagrams.net" modified="2021-12-11T14:45:25.224Z" agent="5.0 (Windows)" etag="u6tohRDdaMwQ0MuJxEjm" version="15.9.4" type="github">
  <diagram id="C5RBs43oDa-KdzZeNtuy" name="Page-1">
    <mxGraphModel dx="3555" dy="1950" grid="1" gridSize="20" guides="1" tooltips="1" connect="1" arrows="1" fold="1" page="1" pageScale="1" pageWidth="3300" pageHeight="2339" math="0" shadow="0">
      <root>
        <mxCell id="WIyWlLk6GJQsqaUBKTNV-0" />
        <mxCell id="WIyWlLk6GJQsqaUBKTNV-1" parent="WIyWlLk6GJQsqaUBKTNV-0" />
        <mxCell id="WIyWlLk6GJQsqaUBKTNV-5" value="" style="edgeStyle=orthogonalEdgeStyle;rounded=0;html=1;jettySize=auto;orthogonalLoop=1;fontSize=11;endArrow=block;endFill=0;endSize=8;strokeWidth=1;shadow=0;labelBackgroundColor=none;" parent="WIyWlLk6GJQsqaUBKTNV-1" target="WIyWlLk6GJQsqaUBKTNV-7" edge="1">
          <mxGeometry y="10" relative="1" as="geometry">
            <mxPoint as="offset" />
            <mxPoint x="800" y="340" as="sourcePoint" />
          </mxGeometry>
        </mxCell>
        <mxCell id="OF6Gfy8Myrsf1uc-aaZn-0" value="" style="edgeStyle=orthogonalEdgeStyle;rounded=0;orthogonalLoop=1;jettySize=auto;html=1;" edge="1" parent="WIyWlLk6GJQsqaUBKTNV-1" source="WIyWlLk6GJQsqaUBKTNV-7">
          <mxGeometry relative="1" as="geometry">
            <mxPoint x="800" y="340" as="targetPoint" />
          </mxGeometry>
        </mxCell>
        <mxCell id="OF6Gfy8Myrsf1uc-aaZn-13" value="" style="edgeStyle=orthogonalEdgeStyle;rounded=0;orthogonalLoop=1;jettySize=auto;html=1;fontFamily=Helvetica;fontSize=32;" edge="1" parent="WIyWlLk6GJQsqaUBKTNV-1" target="OF6Gfy8Myrsf1uc-aaZn-17">
          <mxGeometry relative="1" as="geometry">
            <mxPoint x="1655" y="368" as="sourcePoint" />
            <mxPoint x="1655" y="453" as="targetPoint" />
            <Array as="points">
              <mxPoint x="1645" y="368" />
              <mxPoint x="1645" y="593" />
            </Array>
          </mxGeometry>
        </mxCell>
        <mxCell id="OF6Gfy8Myrsf1uc-aaZn-15" value="" style="strokeWidth=2;html=1;shape=mxgraph.flowchart.terminator;whiteSpace=wrap;fontFamily=Helvetica;fontSize=32;fillColor=#d5e8d4;strokeColor=#82b366;" vertex="1" parent="WIyWlLk6GJQsqaUBKTNV-1">
          <mxGeometry x="1385" y="140" width="540" height="245" as="geometry" />
        </mxCell>
        <mxCell id="OF6Gfy8Myrsf1uc-aaZn-6" value="&lt;div&gt;License&lt;/div&gt;&lt;div&gt;API&lt;br&gt;&lt;/div&gt;" style="text;strokeColor=none;fillColor=none;html=1;fontSize=48;fontStyle=1;verticalAlign=middle;align=center;fontFamily=Helvetica;" vertex="1" parent="WIyWlLk6GJQsqaUBKTNV-1">
          <mxGeometry x="1605" y="228" width="100" height="70" as="geometry" />
        </mxCell>
        <mxCell id="OF6Gfy8Myrsf1uc-aaZn-22" value="" style="edgeStyle=orthogonalEdgeStyle;rounded=0;orthogonalLoop=1;jettySize=auto;html=1;fontFamily=Helvetica;fontSize=32;" edge="1" parent="WIyWlLk6GJQsqaUBKTNV-1" source="OF6Gfy8Myrsf1uc-aaZn-17" target="OF6Gfy8Myrsf1uc-aaZn-21">
          <mxGeometry relative="1" as="geometry" />
        </mxCell>
        <mxCell id="OF6Gfy8Myrsf1uc-aaZn-17" value="&lt;div style=&quot;font-size: 40px;&quot;&gt;Route&lt;/div&gt;&lt;div style=&quot;font-size: 40px;&quot;&gt;(/)&lt;br style=&quot;font-size: 40px;&quot;&gt;&lt;/div&gt;" style="rounded=0;whiteSpace=wrap;html=1;fontFamily=Helvetica;fontSize=40;fillColor=#ffe6cc;strokeColor=#d79b00;" vertex="1" parent="WIyWlLk6GJQsqaUBKTNV-1">
          <mxGeometry x="1695" y="513" width="340" height="160" as="geometry" />
        </mxCell>
        <mxCell id="OF6Gfy8Myrsf1uc-aaZn-21" value="&lt;div style=&quot;font-size: 40px;&quot;&gt;Route&lt;/div&gt;&lt;div style=&quot;font-size: 40px;&quot;&gt;(:/id)&lt;br style=&quot;font-size: 40px;&quot;&gt;&lt;/div&gt;" style="rounded=0;whiteSpace=wrap;html=1;fontFamily=Helvetica;fontSize=40;fillColor=#ffe6cc;strokeColor=#d79b00;" vertex="1" parent="WIyWlLk6GJQsqaUBKTNV-1">
          <mxGeometry x="1265" y="513" width="340" height="160" as="geometry" />
        </mxCell>
      </root>
    </mxGraphModel>
  </diagram>
</mxfile>
